<mxfile host="65bd71144e">
    <diagram id="9lAvMxEab7vvcSh6z3sX" name="Страница 1">
        <mxGraphModel dx="604" dy="636" grid="1" gridSize="10" guides="1" tooltips="1" connect="1" arrows="1" fold="1" page="1" pageScale="1" pageWidth="827" pageHeight="1169" math="0" shadow="0">
            <root>
                <mxCell id="0"/>
                <mxCell id="1" parent="0"/>
                <mxCell id="32" value="" style="rounded=0;whiteSpace=wrap;html=1;rotation=-90;" parent="1" vertex="1">
                    <mxGeometry x="313.28" y="286.73" width="307.2" height="20" as="geometry"/>
                </mxCell>
                <mxCell id="6" style="edgeStyle=none;html=1;exitX=0.438;exitY=1.007;exitDx=0;exitDy=0;exitPerimeter=0;dashed=1;endArrow=none;endFill=0;" parent="1" source="3" edge="1">
                    <mxGeometry relative="1" as="geometry">
                        <mxPoint x="150" y="470" as="targetPoint"/>
                        <Array as="points">
                            <mxPoint x="151.87" y="245"/>
                        </Array>
                    </mxGeometry>
                </mxCell>
                <mxCell id="3" value="Отправитель" style="text;html=1;align=center;verticalAlign=middle;resizable=0;points=[];autosize=1;strokeColor=none;fillColor=none;" parent="1" vertex="1">
                    <mxGeometry x="106.17" y="90" width="100" height="30" as="geometry"/>
                </mxCell>
                <mxCell id="7" style="edgeStyle=none;html=1;dashed=1;endArrow=none;endFill=0;startArrow=none;" parent="1" source="32" edge="1">
                    <mxGeometry relative="1" as="geometry">
                        <mxPoint x="467" y="470" as="targetPoint"/>
                    </mxGeometry>
                </mxCell>
                <mxCell id="4" value="Получатель" style="text;html=1;align=center;verticalAlign=middle;resizable=0;points=[];autosize=1;strokeColor=none;fillColor=none;" parent="1" vertex="1">
                    <mxGeometry x="421.88" y="90" width="90" height="30" as="geometry"/>
                </mxCell>
                <mxCell id="8" value="" style="endArrow=none;startArrow=classic;html=1;startFill=1;endFill=0;entryX=0.977;entryY=-0.071;entryDx=0;entryDy=0;entryPerimeter=0;" parent="1" edge="1">
                    <mxGeometry width="50" height="50" relative="1" as="geometry">
                        <mxPoint x="163" y="180" as="sourcePoint"/>
                        <mxPoint x="456.6250000000001" y="180.17124999999987" as="targetPoint"/>
                    </mxGeometry>
                </mxCell>
                <mxCell id="10" value="&lt;span style=&quot;color: rgb(63, 63, 63); font-size: 10px;&quot;&gt;AUTH&lt;/span&gt;" style="text;html=1;align=center;verticalAlign=middle;resizable=0;points=[];autosize=1;strokeColor=none;fillColor=none;" parent="1" vertex="1">
                    <mxGeometry x="286.16999999999996" y="150" width="50" height="30" as="geometry"/>
                </mxCell>
                <mxCell id="11" value="" style="endArrow=classic;html=1;exitX=0.927;exitY=0.924;exitDx=0;exitDy=0;exitPerimeter=0;entryX=0.924;entryY=-0.054;entryDx=0;entryDy=0;entryPerimeter=0;dashed=1;" parent="1" edge="1">
                    <mxGeometry width="50" height="50" relative="1" as="geometry">
                        <mxPoint x="161.52499999999998" y="208.2387500000001" as="sourcePoint"/>
                        <mxPoint x="456.96500000000003" y="207.92999999999984" as="targetPoint"/>
                    </mxGeometry>
                </mxCell>
                <mxCell id="12" value="" style="rounded=0;whiteSpace=wrap;html=1;rotation=-90;" parent="1" vertex="1">
                    <mxGeometry y="286.88" width="303.75" height="20" as="geometry"/>
                </mxCell>
                <mxCell id="13" value="&lt;span style=&quot;font-size: 10px;&quot;&gt;OK&lt;/span&gt;" style="text;html=1;align=center;verticalAlign=middle;resizable=0;points=[];autosize=1;strokeColor=none;fillColor=none;" parent="1" vertex="1">
                    <mxGeometry x="291.16999999999996" y="180" width="40" height="30" as="geometry"/>
                </mxCell>
                <mxCell id="15" value="" style="endArrow=none;html=1;fontSize=10;entryX=0.757;entryY=-0.011;entryDx=0;entryDy=0;entryPerimeter=0;exitX=0.761;exitY=1.026;exitDx=0;exitDy=0;exitPerimeter=0;startArrow=classicThin;startFill=1;endFill=0;" parent="1" edge="1">
                    <mxGeometry width="50" height="50" relative="1" as="geometry">
                        <mxPoint x="162.5050000000001" y="245.40125000000012" as="sourcePoint"/>
                        <mxPoint x="456.77" y="246.4525" as="targetPoint"/>
                    </mxGeometry>
                </mxCell>
                <mxCell id="16" value="&lt;span style=&quot;font-size: 10px;&quot;&gt;REQ&lt;/span&gt;" style="text;html=1;align=center;verticalAlign=middle;resizable=0;points=[];autosize=1;strokeColor=none;fillColor=none;" parent="1" vertex="1">
                    <mxGeometry x="286.28" y="220" width="50" height="30" as="geometry"/>
                </mxCell>
                <mxCell id="21" value="" style="rounded=0;whiteSpace=wrap;html=1;fontSize=10;fillColor=none;" parent="1" vertex="1">
                    <mxGeometry x="106.17" y="264.38" width="403.83" height="85.62" as="geometry"/>
                </mxCell>
                <mxCell id="22" value="Цикл" style="text;html=1;align=center;verticalAlign=middle;resizable=0;points=[];autosize=1;strokeColor=none;fillColor=none;fontSize=10;" parent="1" vertex="1">
                    <mxGeometry x="99.99999999999999" y="264.38" width="50" height="30" as="geometry"/>
                </mxCell>
                <mxCell id="27" value="" style="endArrow=classic;html=1;fontSize=10;exitX=0.466;exitY=1.038;exitDx=0;exitDy=0;exitPerimeter=0;entryX=0.463;entryY=-0.015;entryDx=0;entryDy=0;entryPerimeter=0;" parent="1" edge="1">
                    <mxGeometry width="50" height="50" relative="1" as="geometry">
                        <mxPoint x="162.66499999999996" y="295.6875" as="sourcePoint"/>
                        <mxPoint x="456.605" y="295.3787500000001" as="targetPoint"/>
                    </mxGeometry>
                </mxCell>
                <mxCell id="30" value="&lt;span style=&quot;font-size: 10px;&quot;&gt;DATA&lt;/span&gt;" style="text;html=1;align=center;verticalAlign=middle;resizable=0;points=[];autosize=1;strokeColor=none;fillColor=none;" parent="1" vertex="1">
                    <mxGeometry x="285.03" y="270" width="50" height="30" as="geometry"/>
                </mxCell>
                <mxCell id="33" value="" style="edgeStyle=none;html=1;endArrow=none;endFill=0;dashed=1;" parent="1" source="4" target="32" edge="1">
                    <mxGeometry relative="1" as="geometry">
                        <mxPoint x="466.87999999999977" y="85" as="sourcePoint"/>
                        <mxPoint x="466.87999999999977" y="719.7999674479165" as="targetPoint"/>
                    </mxGeometry>
                </mxCell>
                <mxCell id="37" value="" style="endArrow=classic;html=1;fontSize=10;exitX=0.309;exitY=0.003;exitDx=0;exitDy=0;exitPerimeter=0;entryX=0.389;entryY=1.082;entryDx=0;entryDy=0;entryPerimeter=0;dashed=1;" parent="1" edge="1" target="12">
                    <mxGeometry width="50" height="50" relative="1" as="geometry">
                        <mxPoint x="456.92499999999995" y="330.0362500000001" as="sourcePoint"/>
                        <mxPoint x="163.14499999999995" y="329.8212500000002" as="targetPoint"/>
                    </mxGeometry>
                </mxCell>
                <mxCell id="39" value="&lt;span style=&quot;font-size: 10px;&quot;&gt;ACK&lt;/span&gt;" style="text;html=1;align=center;verticalAlign=middle;resizable=0;points=[];autosize=1;strokeColor=none;fillColor=none;" parent="1" vertex="1">
                    <mxGeometry x="289.99" y="300" width="40" height="30" as="geometry"/>
                </mxCell>
                <mxCell id="47" value="" style="endArrow=none;html=1;fontSize=10;entryX=0.757;entryY=-0.011;entryDx=0;entryDy=0;entryPerimeter=0;startArrow=classicThin;startFill=1;endFill=0;" edge="1" parent="1">
                    <mxGeometry width="50" height="50" relative="1" as="geometry">
                        <mxPoint x="163" y="383" as="sourcePoint"/>
                        <mxPoint x="456.77" y="383.3325" as="targetPoint"/>
                    </mxGeometry>
                </mxCell>
                <mxCell id="48" value="&lt;span style=&quot;font-size: 10px;&quot;&gt;FIN&lt;/span&gt;" style="text;html=1;align=center;verticalAlign=middle;resizable=0;points=[];autosize=1;strokeColor=none;fillColor=none;" vertex="1" parent="1">
                    <mxGeometry x="291.28" y="356.88" width="40" height="30" as="geometry"/>
                </mxCell>
                <mxCell id="49" value="" style="endArrow=classic;html=1;exitX=0.927;exitY=0.924;exitDx=0;exitDy=0;exitPerimeter=0;entryX=0.924;entryY=-0.054;entryDx=0;entryDy=0;entryPerimeter=0;dashed=1;" edge="1" parent="1">
                    <mxGeometry width="50" height="50" relative="1" as="geometry">
                        <mxPoint x="161.91499999999996" y="420.3087500000001" as="sourcePoint"/>
                        <mxPoint x="457.355" y="419.99999999999983" as="targetPoint"/>
                    </mxGeometry>
                </mxCell>
                <mxCell id="50" value="&lt;span style=&quot;font-size: 10px;&quot;&gt;OK&lt;/span&gt;" style="text;html=1;align=center;verticalAlign=middle;resizable=0;points=[];autosize=1;strokeColor=none;fillColor=none;" vertex="1" parent="1">
                    <mxGeometry x="291.28" y="390" width="40" height="30" as="geometry"/>
                </mxCell>
            </root>
        </mxGraphModel>
    </diagram>
</mxfile>